<?xml version="1.0" encoding="UTF-8"?>
<svg width="194px" height="194px" viewBox="0 0 194 194" version="1.1" xmlns="http://www.w3.org/2000/svg" xmlns:xlink="http://www.w3.org/1999/xlink">
    <defs>
        <circle id="path-1" cx="78" cy="78" r="78"></circle>
        <filter x="-13.5%" y="-13.5%" width="126.9%" height="126.9%" filterUnits="objectBoundingBox" id="filter-3">
            <feOffset dx="0" dy="0" in="SourceAlpha" result="shadowOffsetOuter1"></feOffset>
            <feGaussianBlur stdDeviation="7" in="shadowOffsetOuter1" result="shadowBlurOuter1"></feGaussianBlur>
            <feColorMatrix values="0 0 0 0 0.870588235   0 0 0 0 0.890196078   0 0 0 0 0.925490196  0 0 0 1 0" type="matrix" in="shadowBlurOuter1"></feColorMatrix>
        </filter>
        <polygon id="path-4" points="5.61842105 13.4473684 115.578947 13.4473684 115.578947 121.736842 5.61842105 121.736842"></polygon>
        <rect id="path-5" x="13.6447368" y="41.7368421" width="94.7105263" height="17.6578947" rx="5"></rect>
        <path d="M5.59275815,11.2391038 L59.3917236,0.198244545 L59.3917236,0.198244545 C60.4528502,-0.0195245048 61.5471498,-0.0195245048 62.6082764,0.198244545 L116.407242,11.2391038 L116.407242,11.2391038 C119.662955,11.9072556 122,14.772626 122,18.0961929 L122,25.9078947 L122,25.9078947 C122,29.773888 118.865993,32.9078947 115,32.9078947 L7,32.9078947 L7,32.9078947 C3.13400675,32.9078947 4.73447626e-16,29.773888 0,25.9078947 L0,18.0961929 L1.77635684e-15,18.0961929 C-1.06622925e-16,14.772626 2.33704468,11.9072556 5.59275815,11.2391038 Z" id="path-6"></path>
        <path d="M40.7595397,48.1578947 L79.6344837,48.1578947 L79.6344837,48.1578947 C82.0380495,48.1578947 84.1015159,49.8680996 84.5476126,52.2299054 L90.3904509,83.1641159 L90.3904509,83.1641159 C90.9029652,85.8775621 89.1187575,88.4927198 86.4053113,89.0052342 C86.0993611,89.0630219 85.7886818,89.0921053 85.4773219,89.0921053 L34.9167014,89.0921053 L34.9167014,89.0921053 C32.1552777,89.0921053 29.9167014,86.853529 29.9167014,84.0921053 C29.9167014,83.7807454 29.9457848,83.4700662 30.0035725,83.1641159 L35.8464108,52.2299054 L35.8464108,52.2299054 C36.2925075,49.8680996 38.3559738,48.1578947 40.7595397,48.1578947 Z" id="path-7"></path>
        <path d="M77.1959166,70.6315789 L80.3685539,70.6315789 L80.3685539,70.6315789 C81.3503707,70.6315789 82.1870002,71.3442495 82.3431106,72.313576 L83.3793421,78.7477865 L83.3793421,78.7477865 C83.5549703,79.8383041 82.813306,80.864718 81.7227884,81.0403462 C81.617634,81.0572813 81.5112948,81.0657895 81.4047855,81.0657895 L76.6778008,81.0657895 L76.6778008,81.0657895 C75.5732313,81.0657895 74.6778008,80.170359 74.6778008,79.0657895 C74.6778008,79.0122144 74.6799535,78.958661 74.6842538,78.9052588 L75.2023695,72.4710483 L75.2023695,72.4710483 C75.2860318,71.4320908 76.1535962,70.6315789 77.1959166,70.6315789 Z" id="path-8"></path>
        <linearGradient x1="-97.5131443%" y1="50%" x2="103.378576%" y2="50%" id="linearGradient-9">
            <stop stop-color="#554481" offset="0%"></stop>
            <stop stop-color="#567BE2" offset="100%"></stop>
        </linearGradient>
        <circle id="path-10" cx="78" cy="78" r="78"></circle>
        <filter x="-16.3%" y="-16.3%" width="132.7%" height="132.7%" filterUnits="objectBoundingBox" id="filter-11">
            <feMorphology radius="4.5" operator="dilate" in="SourceAlpha" result="shadowSpreadOuter1"></feMorphology>
            <feOffset dx="0" dy="0" in="shadowSpreadOuter1" result="shadowOffsetOuter1"></feOffset>
            <feMorphology radius="4.5" operator="erode" in="SourceAlpha" result="shadowInner"></feMorphology>
            <feOffset dx="0" dy="0" in="shadowInner" result="shadowInner"></feOffset>
            <feComposite in="shadowOffsetOuter1" in2="shadowInner" operator="out" result="shadowOffsetOuter1"></feComposite>
            <feGaussianBlur stdDeviation="7" in="shadowOffsetOuter1" result="shadowBlurOuter1"></feGaussianBlur>
            <feColorMatrix values="0 0 0 0 0.870588235   0 0 0 0 0.890196078   0 0 0 0 0.925490196  0 0 0 1 0" type="matrix" in="shadowBlurOuter1"></feColorMatrix>
        </filter>
    </defs>
    <g id="Page-1" stroke="none" stroke-width="1" fill="none" fill-rule="evenodd">
        <g id="Mobile" transform="translate(-518.000000, -2886.000000)">
            <g id="Group-27" transform="translate(537.000000, 2905.000000)">
                <g id="Group-23" transform="translate(0.000000, 4.000000)">
                    <mask id="mask-2" fill="white">
                        <use xlink:href="#path-1"></use>
                    </mask>
                    <g id="Mask">
                        <use fill="black" fill-opacity="1" filter="url(#filter-3)" xlink:href="#path-1"></use>
                        <use fill="#F0F1F5" fill-rule="evenodd" xlink:href="#path-1"></use>
                    </g>
                    <g mask="url(#mask-2)">
                        <g transform="translate(18.000000, 39.000000)">
                            <g id="Group-22">
                                <g id="Rectangle-11">
                                    <use fill="#DEE3EC" fill-rule="evenodd" xlink:href="#path-4"></use>
                                    <path stroke="#567BE2" stroke-width="2" d="M6.61842105,14.4473684 L6.61842105,120.736842 L114.578947,120.736842 L114.578947,14.4473684 L6.61842105,14.4473684 Z"></path>
                                </g>
                                <g id="Rectangle-11">
                                    <use fill="#FFFFFF" fill-rule="evenodd" xlink:href="#path-5"></use>
                                    <rect stroke="#567BE2" stroke-width="2" x="14.6447368" y="42.7368421" width="92.7105263" height="15.6578947" rx="5"></rect>
                                </g>
                                <g id="Rectangle-11">
                                    <use fill="#DEE3EC" fill-rule="evenodd" xlink:href="#path-6"></use>
                                    <path stroke="#567BE2" stroke-width="2" d="M5.7937927,12.218688 C3.00318115,12.7913895 1,15.2474212 1,18.0961929 L1,25.9078947 C1,29.2216032 3.6862915,31.9078947 7,31.9078947 L115,31.9078947 C118.313708,31.9078947 121,29.2216032 121,25.9078947 L121,18.0961929 C121,15.2474212 118.996819,12.7913895 116.206207,12.218688 L62.4072418,1.1778287 C61.4787561,0.987280778 60.5212439,0.987280778 59.5927582,1.1778287 L5.7937927,12.218688 Z"></path>
                                </g>
                                <path d="M44.3054146,19.4020749 C44.9680637,19.4020749 45.5257303,19.6269859 45.9784311,20.0768146 C46.431132,20.5266434 46.657479,21.0789983 46.657479,21.733896 C46.657479,22.3887938 46.431132,22.9411487 45.9784311,23.3909774 C45.5257303,23.8408062 44.9680637,24.0657172 44.3054146,24.0657172 L43.0949379,24.0657172 L43.0949379,26.3479251 L41.7368421,26.3479251 L41.7368421,19.4020749 L44.3054146,19.4020749 Z M44.3054146,22.7856962 C44.5940934,22.7856962 44.833562,22.684817 45.0238276,22.4830556 C45.2140931,22.2812942 45.3092245,22.0315768 45.3092245,21.733896 C45.3092245,21.4296001 45.2140931,21.178229 45.0238276,20.9797752 C44.833562,20.7813213 44.5940934,20.6820959 44.3054146,20.6820959 L43.0949379,20.6820959 L43.0949379,22.7856962 L44.3054146,22.7856962 Z M51.7847826,26.4868421 C50.7875286,26.4868421 49.9428277,26.1378993 49.2506546,25.4400033 C48.5584816,24.7421072 48.2124002,23.8871147 48.2124002,22.875 C48.2124002,21.8628853 48.5584816,21.0078928 49.2506546,20.3099967 C49.9428277,19.6121007 50.7875286,19.2631579 51.7847826,19.2631579 C52.7820367,19.2631579 53.6283778,19.6121007 54.3238313,20.3099967 C55.0192848,21.0078928 55.3670063,21.8628853 55.3670063,22.875 C55.3670063,23.8871147 55.0192848,24.7421072 54.3238313,25.4400033 C53.6283778,26.1378993 52.7820367,26.4868421 51.7847826,26.4868421 Z M51.7847826,25.1472853 C52.4146273,25.1472853 52.9427704,24.9339506 53.3692277,24.5072748 C53.7956851,24.080599 54.0089105,23.5365129 54.0089105,22.875 C54.0089105,22.2134871 53.7956851,21.6677472 53.3692277,21.2377639 C52.9427704,20.8077805 52.4146273,20.5927921 51.7847826,20.5927921 C51.154938,20.5927921 50.6267949,20.8077805 50.2003376,21.2377639 C49.7738802,21.6677472 49.5606548,22.2134871 49.5606548,22.875 C49.5606548,23.5365129 49.7738802,24.080599 50.2003376,24.5072748 C50.6267949,24.9339506 51.154938,25.1472853 51.7847826,25.1472853 Z M60.6222465,26.4868421 C59.5856271,26.4868421 58.7294449,26.1395531 58.053674,25.4449646 C57.3779032,24.7503761 57.0400228,23.8937298 57.0400228,22.875 C57.0400228,21.8496551 57.3779032,20.991355 58.053674,20.3000741 C58.7294449,19.6087932 59.5856271,19.2631579 60.6222465,19.2631579 C61.2455303,19.2631579 61.8212391,19.4103423 62.3493901,19.7047155 C62.8775411,19.9990887 63.2892302,20.3976442 63.5844699,20.900394 L62.4133583,21.5850564 C62.2427754,21.2741454 62.0000264,21.031043 61.6851041,20.8557421 C61.3701817,20.6804412 61.0158994,20.5927921 60.6222465,20.5927921 C59.9530365,20.5927921 59.4134121,20.804473 59.003357,21.2278412 C58.5933018,21.6512095 58.3882773,22.2002569 58.3882773,22.875 C58.3882773,23.543128 58.5933018,24.0888679 59.003357,24.5122361 C59.4134121,24.9356043 59.9530365,25.1472853 60.6222465,25.1472853 C61.0158994,25.1472853 61.3718219,25.0596361 61.6900247,24.8843352 C62.0082275,24.7090343 62.2493363,24.4692395 62.4133583,24.1649436 L63.5844699,24.849606 C63.2892302,25.3523558 62.8791813,25.7509113 62.3543107,26.0452845 C61.8294401,26.3396577 61.2520912,26.4868421 60.6222465,26.4868421 Z M66.8714553,25.0381362 L69.7943137,25.0381362 L69.7943137,26.3479251 L65.1393912,26.3479251 L65.1393912,25.2564344 L68.0032018,20.7118638 L65.2082801,20.7118638 L65.2082801,19.4020749 L69.735266,19.4020749 L69.735266,20.483643 L66.8714553,25.0381362 Z M76.2797131,19.4020749 L76.2797131,20.7118638 L74.4197123,20.7118638 L74.4197123,26.3479251 L73.0616165,26.3479251 L73.0616165,20.7118638 L71.2114571,20.7118638 L71.2114571,19.4020749 L76.2797131,19.4020749 Z M81.9974931,26.3479251 L81.5841596,25.0976721 L78.8384442,25.0976721 L78.4251107,26.3479251 L76.9587609,26.3479251 L79.369873,19.4020749 L81.0527309,19.4020749 L83.4736842,26.3479251 L81.9974931,26.3479251 Z M79.2714603,23.8176511 L81.1609849,23.8176511 L80.2162226,20.9797752 L79.2714603,23.8176511 Z" id="POCZTA" fill="#567BE2"></path>
                                <g id="Rectangle-13">
                                    <use fill="#FFFFFF" fill-rule="evenodd" xlink:href="#path-7"></use>
                                    <path stroke="#567BE2" stroke-width="2" d="M40.7595397,49.1578947 C38.836687,49.1578947 37.1859139,50.5260586 36.8290365,52.4155033 L30.9861983,83.3497138 C30.9399681,83.594474 30.9167014,83.8430174 30.9167014,84.0921053 C30.9167014,86.3012443 32.7075624,88.0921053 34.9167014,88.0921053 L85.4773219,88.0921053 C85.7264098,88.0921053 85.9749532,88.0688386 86.2197134,88.0226084 C88.3904704,87.6125969 89.8178366,85.5204707 89.4078251,83.3497138 L83.5649868,52.4155033 C83.2081094,50.5260586 81.5573364,49.1578947 79.6344837,49.1578947 L40.7595397,49.1578947 Z"></path>
                                </g>
                                <g id="Rectangle-14">
                                    <use fill="#DEE3EC" fill-rule="evenodd" xlink:href="#path-8"></use>
                                    <path stroke="#567BE2" stroke-width="2" d="M77.1959166,71.6315789 C76.6747564,71.6315789 76.2409742,72.0318349 76.1991431,72.5513136 L75.6810273,78.9855241 C75.6788772,79.0122252 75.6778008,79.0390019 75.6778008,79.0657895 C75.6778008,79.6180742 76.1255161,80.0657895 76.6778008,80.0657895 L81.4047855,80.0657895 C81.4580401,80.0657895 81.5112097,80.0615354 81.5637869,80.0530678 C82.1090457,79.9652537 82.4798779,79.4520468 82.3920638,78.906788 L81.3558322,72.4725775 C81.277777,71.9879142 80.8594623,71.6315789 80.3685539,71.6315789 L77.1959166,71.6315789 Z"></path>
                                </g>
                                <rect id="Rectangle-12" fill="#567BE2" x="1.60526316" y="14.4473684" width="94.7105263" height="1.60526316" rx="0.802631579"></rect>
                                <rect id="Rectangle-12" fill="#567BE2" x="101.131579" y="14.4473684" width="20.0657895" height="1.60526316" rx="0.802631579"></rect>
                                <path d="M16.4608406,44.1494242 L20.8164882,49.8082231 L20.8164882,49.8082231 C21.5737118,50.7919978 22.7447954,51.3684211 23.9862462,51.3684211 L97.9474142,51.3684211 L97.9474142,51.3684211 C99.179134,51.3684211 100.342168,50.8009547 101.100198,49.8301181 L105.531416,44.154898 L105.531416,44.154898 C105.871306,43.7195893 105.793953,43.0911671 105.358644,42.7512777 C105.182861,42.6140255 104.96624,42.5394737 104.74322,42.5394737 L17.2532801,42.5394737 L17.2532801,42.5394737 C16.7009954,42.5394737 16.2532801,42.9871889 16.2532801,43.5394737 C16.2532801,43.7601215 16.3262564,43.9745742 16.4608406,44.1494242 Z" id="Path-8" stroke="#567BE2" stroke-width="2" fill="#DEE3EC"></path>
                            </g>
                            <g id="Group-21" transform="translate(47.507412, 73.420246) rotate(-1.000000) translate(-47.507412, -73.420246) translate(41.007412, 64.920246)">
                                <rect id="Rectangle-15" fill="#567BE2" x="11.0347567" y="0" width="1.57639382" height="7.65676998" rx="0.788196909"></rect>
                                <rect id="Rectangle-15" fill="#567BE2" x="6.30557528" y="0" width="1.57639382" height="16.2706362" rx="0.788196909"></rect>
                                <rect id="Rectangle-15" fill="#567BE2" x="3.15278764" y="0" width="1.57639382" height="15.31354" rx="0.788196909"></rect>
                                <rect id="Rectangle-15" fill="#567BE2" x="0" y="0" width="1.57639382" height="4.78548124" rx="0.788196909"></rect>
                                <rect id="Rectangle-15" fill="#567BE2" x="0" y="7.65676998" width="1.57639382" height="6.69967373" rx="0.788196909"></rect>
                            </g>
                        </g>
                    </g>
                </g>
                <g id="Group-5">
                    <g id="Oval-6">
                        <use fill="black" fill-opacity="1" filter="url(#filter-11)" xlink:href="#path-10"></use>
                        <use stroke="url(#linearGradient-9)" stroke-width="9" xlink:href="#path-10"></use>
                    </g>
                </g>
            </g>
        </g>
    </g>
</svg>